<svg width="187" height="80" xmlns="http://www.w3.org/2000/svg">
 <!-- Created with Method Draw - http://github.com/duopixel/Method-Draw/ -->

 <g>
  <title>background</title>
  <rect x="-1" y="-1" width="189" height="82" id="canvas_background" fill="none"/>
 </g>
 <g>
  <title>Layer 1</title>
  <!-- Generator: Sketch 53.2 (72643) - https://sketchapp.com -->
  <desc>Created with Sketch.</desc>
  <g transform="matrix(1.4362053705420799,0,0,1.4362053705420799,-506.853414444362,-431.0956883908657) " stroke="null" id="svg_24">
   <g stroke="null" id="svg_23">
    <g id="svg_22" stroke="null">
     <path fill="#1db954" id="svg_20" d="m366.24442,324.35332l12.2143,7.54122l-8.45605,7.04671l-12.1154,-7.88737l8.35715,-6.70056zm24.37915,13.72254l0,2.67034l-12.11539,7.24451l0,0.02473l-0.02473,-0.02473l-0.02473,0.02473l0,-0.02473l-12.09067,-7.24451l0,-2.67034l3.63462,2.37363l8.45605,-7.02198l0,-0.04946l0.02473,0.02474l0.02473,-0.02474l0,0.04946l8.48078,7.02198l3.63461,-2.37363zm-20.6209,-28.28574l8.45605,7.04671l-12.2143,7.51649l-8.35715,-6.67583l12.1154,-7.88737l0,0zm20.67035,14.5632l8.35715,6.70056l-12.09067,7.88737l-8.48078,-7.04671l12.2143,-7.54122zm-3.73352,-14.5632l12.09067,7.88737l-8.35715,6.67583l-12.2143,-7.51649l8.48078,-7.04671l0,0z" stroke="null"/>
    </g>
   </g>
  </g>
  <text stroke-opacity="0" fill="#1db954" x="269.564336" y="115.042106" id="svg_2" font-size="26" font-family="Helvetica, Arial, sans-serif" text-anchor="start" xml:space="preserve" stroke="#1db954" transform="matrix(1.7082257270812988,0,0,1.7082257270812988,-367.82367097586393,-140.93691968917847) " font-weight="bold" font-style="normal">Box</text>
 </g>
</svg>